<svg height="512" viewBox="0 0 64 64" width="512" xmlns="http://www.w3.org/2000/svg"><path d="m35 48a3 3 0 1 0 -3 3 3 3 0 0 0 3-3zm-3 1a1 1 0 1 1 1-1 1 1 0 0 1 -1 1z"/><path d="m59 2h-54a3 3 0 0 0 -3 3v45a3 3 0 0 0 3 3h19.919l-2.4 3h-8.519a1 1 0 0 0 -1 1v4a1 1 0 0 0 1 1h36a1 1 0 0 0 1-1v-4a1 1 0 0 0 -1-1h-8.519l-2.4-3h19.919a3 3 0 0 0 3-3v-45a3 3 0 0 0 -3-3zm-10 56v2h-34v-2zm-23.919-2 2.4-3h9.04l2.4 3zm34.919-6a1 1 0 0 1 -1 1h-54a1 1 0 0 1 -1-1v-5h56zm0-7h-56v-35h56zm0-37h-56v-1a1 1 0 0 1 1-1h54a1 1 0 0 1 1 1z"/><path d="m12 35a1 1 0 0 0 1 1h22v4a1 1 0 0 0 1.53.848l7.757-4.848h4.713a1 1 0 0 0 1-1v-18a1 1 0 0 0 -1-1h-36a1 1 0 0 0 -1 1zm2-17h34v16h-4a1 1 0 0 0 -.53.152l-6.47 4.048v-3.2a1 1 0 0 0 -1-1h-22z"/><path d="m50.379 12.5h4.243v2h-4.243z" transform="matrix(.707 -.707 .707 .707 5.831 41.077)"/><path d="m52 17h4v2h-4z"/><path d="m46 10h2v4h-2z"/><path d="m29.555 28.168-2.555-1.703v-2.465a4 4 0 0 0 -8 0v2.465l-2.555 1.7a1 1 0 0 0 -.445.835v2a1 1 0 0 0 1 1h12a1 1 0 0 0 1-1v-2a1 1 0 0 0 -.445-.832zm-1.555 1.832h-10v-.465l2.555-1.7a1 1 0 0 0 .445-.835v-3a2 2 0 0 1 4 0v3a1 1 0 0 0 .445.832l2.555 1.703z"/><path d="m32 20h14v2h-14z"/><path d="m32 24h7v2h-7z"/><path d="m41 24h5v2h-5z"/><path d="m32 28h10v2h-10z"/><path d="m44 28h2v2h-2z"/><path d="m8 12h4v-2h-5a1 1 0 0 0 -1 1v7h2z"/><path d="m6 20h2v2h-2z"/><path d="m56 39h-3v2h4a1 1 0 0 0 1-1v-8h-2z"/></svg>